# xmcd CD database file
#
# Track frame offsets:
#	150
#	26512
#	55484
#	81880
#
# Disc length: 1422 seconds
#
# Revision: 0
# Processed by: cddbd v1.5.1PL0 Copyright (c) Steve Scherf et al.
# Submitted via: CDex 1.51
#
DISCID=2b058c04
DTITLE=Junk Jazz - licence 2 chill
DYEAR=2003
DGENRE=Jazz
TTITLE0=talking about soul
TTITLE1=little bit proud
TTITLE2=dream yakuzi
TTITLE3=great day to die
EXTD=YEAR: 2003
EXTT0=
EXTT1=
EXTT2=
EXTT3=
PLAYORDER=
